<svg xmlns="http://www.w3.org/2000/svg" viewBox="0 0 3000 800" fill="none" shape-rendering="crispEdges" role="img" aria-label="tone">
  <defs>
    <linearGradient id="tw-ramp" x1="0" y1="1" x2="0" y2="0">
      <stop offset="0.0000" stop-color="#ffffff"/>
      <stop offset="0.0417" stop-color="#ffffff"/>
      <stop offset="0.0833" stop-color="#ffffff"/>
      <stop offset="0.1250" stop-color="#ffffff"/>
      <stop offset="0.1667" stop-color="#ffffff"/>
      <stop offset="0.2083" stop-color="#ffffff"/>
      <stop offset="0.2500" stop-color="#ffffff"/>
      <stop offset="0.2917" stop-color="#ffffff"/>
      <stop offset="0.3333" stop-color="#ffffff"/>
      <stop offset="0.3750" stop-color="#ffffff"/>
      <stop offset="0.4167" stop-color="#ffffff"/>
      <stop offset="0.4583" stop-color="#ffffff"/>
      <stop offset="0.5000" stop-color="#ffffff"/>
      <stop offset="0.5417" stop-color="#ffffff"/>
      <stop offset="0.5833" stop-color="#ffffff"/>
      <stop offset="0.6250" stop-color="#ffffff"/>
      <stop offset="0.6667" stop-color="#ffffff"/>
      <stop offset="0.7083" stop-color="#ffffff"/>
      <stop offset="0.7500" stop-color="#ffffff"/>
      <stop offset="0.7917" stop-color="#ffffff"/>
      <stop offset="0.8333" stop-color="#ffffff"/>
      <stop offset="0.8750" stop-color="#ffffff"/>
      <stop offset="0.9167" stop-color="#ffffff"/>
      <stop offset="0.9583" stop-color="#ffffff"/>
      <stop offset="1.0000" stop-color="#ffffff"/>
    </linearGradient>
  </defs>
  <g fill="currentColor">
    <g class="tw__glyph" data-index="0"><rect x="250" y="50" width="100" height="100"/><rect x="50" y="150" width="100" height="100"/><rect x="150" y="150" width="100" height="100"/><rect x="250" y="150" width="100" height="100"/><rect x="350" y="150" width="100" height="100"/><rect x="450" y="150" width="100" height="100"/><rect x="250" y="250" width="100" height="100"/><rect x="250" y="350" width="100" height="100"/><rect x="250" y="450" width="100" height="100"/><rect x="250" y="550" width="100" height="100"/><rect x="250" y="650" width="100" height="100"/></g><g class="tw__glyph" data-index="1"><rect x="750" y="50" width="100" height="100"/><rect x="850" y="50" width="100" height="100"/><rect x="950" y="50" width="100" height="100"/><rect x="650" y="150" width="100" height="100"/><rect x="1050" y="150" width="100" height="100"/><rect x="650" y="250" width="100" height="100"/><rect x="1050" y="250" width="100" height="100"/><rect x="650" y="350" width="100" height="100"/><rect x="1050" y="350" width="100" height="100"/><rect x="650" y="450" width="100" height="100"/><rect x="1050" y="450" width="100" height="100"/><rect x="650" y="550" width="100" height="100"/><rect x="1050" y="550" width="100" height="100"/><rect x="750" y="650" width="100" height="100"/><rect x="850" y="650" width="100" height="100"/><rect x="950" y="650" width="100" height="100"/></g><g class="tw__glyph" data-index="2"><rect x="1350" y="50" width="100" height="100"/><rect x="1450" y="50" width="100" height="100"/><rect x="1550" y="50" width="100" height="100"/><rect x="1250" y="150" width="100" height="100"/><rect x="1650" y="150" width="100" height="100"/><rect x="1250" y="250" width="100" height="100"/><rect x="1650" y="250" width="100" height="100"/><rect x="1250" y="350" width="100" height="100"/><rect x="1650" y="350" width="100" height="100"/><rect x="1250" y="450" width="100" height="100"/><rect x="1650" y="450" width="100" height="100"/><rect x="1250" y="550" width="100" height="100"/><rect x="1650" y="550" width="100" height="100"/><rect x="1250" y="650" width="100" height="100"/><rect x="1650" y="650" width="100" height="100"/></g><g class="tw__glyph" data-index="3"><rect x="1850" y="50" width="100" height="100"/><rect x="1950" y="50" width="100" height="100"/><rect x="2050" y="50" width="100" height="100"/><rect x="2150" y="50" width="100" height="100"/><rect x="2250" y="50" width="100" height="100"/><rect x="1850" y="150" width="100" height="100"/><rect x="1850" y="250" width="100" height="100"/><rect x="1850" y="350" width="100" height="100"/><rect x="1950" y="350" width="100" height="100"/><rect x="2050" y="350" width="100" height="100"/><rect x="2150" y="350" width="100" height="100"/><rect x="1850" y="450" width="100" height="100"/><rect x="1850" y="550" width="100" height="100"/><rect x="1850" y="650" width="100" height="100"/><rect x="1950" y="650" width="100" height="100"/><rect x="2050" y="650" width="100" height="100"/><rect x="2150" y="650" width="100" height="100"/><rect x="2250" y="650" width="100" height="100"/></g>
  </g>
  <rect class="tw__cursor" data-index="4" fill="url(#tw-ramp)" x="2450" y="50" width="500" height="700"/>
</svg>
